<svg xmlns="http://www.w3.org/2000/svg" width="1920" height="1080" viewBox="0 0 1920 1080">
  <defs>
    <style>
      .cls-1 {
        fill: none;
      }

      .cls-2 {
        fill: #f9eaca;
      }

      .cls-3 {
        fill: #d8aa5e;
      }

      .cls-4 {
        fill: #e9b665;
      }

      .cls-5 {
        fill: #0ab69f;
      }

      .cls-6 {
        fill: #01998d;
      }

      .cls-7 {
        fill: #5de1c4;
      }

      .cls-8 {
        fill: #eaf6ff;
      }

      .cls-9 {
        fill: #b3ceec;
      }

      .cls-10 {
        fill: #7a6d79;
      }

      .cls-11 {
        fill: #bb5d4c;
      }

      .cls-12 {
        fill: #0473ce;
      }
    </style>
  </defs>
  <title>Asset 4</title>
  <g id="Layer_2" data-name="Layer 2">
    <g id="Layer_1-2" data-name="Layer 1">
      <rect class="cls-1" width="1920" height="1080"/>
      <g>
        <g>
          <path class="cls-2" d="M1273.84,684.2l-46.8-9.86a6,6,0,0,1-4.59-7l17-80.51a6,6,0,0,1,7-4.59l46.79,9.87a5.94,5.94,0,0,1,4.59,7l-17,80.5a5.94,5.94,0,0,1-7,4.59Z"/>
          <path class="cls-3" d="M1290.68,597.71,1284,629.27,1273.75,678a6,6,0,0,1-7.17,4.68l-5.53-1.16-.9-.19L1220,672.85a6.14,6.14,0,0,1-4.67-7.17l16.92-80.28a6.05,6.05,0,0,1,7.18-4.68l46.57,9.82A6.05,6.05,0,0,1,1290.68,597.71Z"/>
          <path class="cls-4" d="M1284.12,596l-6.65,31.56-10.28,48.72a6.5,6.5,0,0,1-6.14,5.22l-.9-.19L1220,672.85a6.14,6.14,0,0,1-4.67-7.17l16.92-80.28a6.05,6.05,0,0,1,7.18-4.68l41.82,8.81a6.08,6.08,0,0,1,2.87,6.48Z"/>
          <path class="cls-3" d="M1284,629.27,1273.75,678a6,6,0,0,1-7.17,4.68l-6.43-1.35V629.27Z"/>
          <path class="cls-3" d="M1240.8,595.43l-14.5,68.78a3.37,3.37,0,0,1-4,2.61l-3.62-.77a3.37,3.37,0,0,1-2.6-4l14.5-68.79a3.36,3.36,0,0,1,4-2.6l3.62.76a3.37,3.37,0,0,1,2.6,4Z"/>
          <path class="cls-5" d="M1246.91,596.84,1235,653.19l-2.62,12.43c-1.09,4.07-5.57,2.33-8.35,1.6a3.37,3.37,0,0,1-1.87-3.75l2.62-12.43,11.88-56.36a3.45,3.45,0,0,1,4-2.6l3.61.76a3.38,3.38,0,0,1,2.61,4Z"/>
          <path class="cls-6" d="M1235,653.19l-2.62,12.43c-1.09,4.07-5.57,2.33-8.35,1.6a3.37,3.37,0,0,1-1.87-3.75l2.62-12.43Z"/>
          <path class="cls-7" d="M1241.86,595.75,1230,652.13l-2.61,12.41a3.51,3.51,0,0,1-3.3,2.68,3.37,3.37,0,0,1-1.87-3.75l2.62-12.43,11.88-56.36A3.5,3.5,0,0,1,1240,592,3.35,3.35,0,0,1,1241.86,595.75Z"/>
          <path class="cls-5" d="M1230,652.13l-2.61,12.41a3.51,3.51,0,0,1-3.3,2.68,3.37,3.37,0,0,1-1.87-3.75l2.62-12.43Z"/>
          <path class="cls-8" d="M1266.46,629.27h46v46.38h-46Z"/>
          <path class="cls-9" d="M1272,634.88h34.84v31.49H1272Z"/>
          <path class="cls-10" d="M1306.86,650.74v15.63H1272V651.73l15.37-10h5.39Z"/>
          <path class="cls-11" d="M1306.86,655v11.33H1272V651.73C1282.17,652.75,1306.86,655,1306.86,655Z"/>
          <path class="cls-12" d="M1306.86,655V670H1272V661.5Z"/>
        </g>
        <g>
          <path d="M1272,608.21a1.67,1.67,0,0,0,1.88-1.23,1.59,1.59,0,0,0-1.23-1.88L1260,602.43a1.59,1.59,0,1,0-.65,3.11Z"/>
          <path d="M1278.57,609.58l3.27.69a1.59,1.59,0,0,0,.66-3.1l-3.27-.69a1.58,1.58,0,1,0-.66,3.1Z"/>
          <path d="M1312.41,663a1.59,1.59,0,0,0,1.59-1.59V629.27a1.59,1.59,0,0,0-1.59-1.59h-19l1.24-5.87,4.69-22.26v-.11s0-.06,0-.1a7.65,7.65,0,0,0-5.94-8.85l-7.15-1.51-46.58-9.81a7.64,7.64,0,0,0-9,5.9c-2.92,13.84-5.34,25.3-7.34,34.8h0v0c-9.62,45.63-9.62,45.68-9.63,45.71a7.68,7.68,0,0,0,3.67,7.91c1.22,1,13.17,3,14.81,3.52a1.59,1.59,0,0,0,.66-3.11c-2.08-.56-12.51-2.35-13.86-3.15a4.47,4.47,0,0,1-2.15-4.6c.17-.86,4.88-23.17,9.28-44.08l3,.66-8.51,40.37a5,5,0,0,0,3.83,5.88l3.62.76A5.06,5.06,0,0,0,1234,666l8.49-40.28,22.43,4.88v45.1a1.59,1.59,0,0,0,1.58,1.59h5.83a4.6,4.6,0,0,1-5.39,3.88l-26.81-5.65a1.58,1.58,0,1,0-.65,3.1l34.07,7.19c6.15,1.09,9-3.92,9.49-8.52h29.41a1.59,1.59,0,0,0,1.59-1.59V669a1.59,1.59,0,1,0-3.18,0v5.1h-42.77v-43.2h42.77v30.55a1.59,1.59,0,0,0,1.59,1.59Zm-19.59-69.4a4.47,4.47,0,0,1,3.46,5.27l-4.7,22.3-1.37,6.51H1286l6.25-29.64c-.12-.26.78-1.27-.49-4.67Zm-64.08,73.07-3.62-.76a1.77,1.77,0,0,1-1.37-2.11l2.29-10.88,7.11,1.5-2.3,10.88A1.77,1.77,0,0,1,1228.74,666.67Zm5.06-15.36-7.11-1.5,5.56-26.36,7.1,1.54Zm11.55-54.8h0L1240,621.89l-7.09-1.55,5.34-25.33a1.77,1.77,0,0,1,2.11-1.38l3.62.77A1.83,1.83,0,0,1,1245.35,596.51Zm2.19,5,.78.16a1.87,1.87,0,0,1,1.44,2.22v0l-3,15.31a1.6,1.6,0,0,0,1.26,1.86,1.67,1.67,0,0,0,1.86-1.26l3-15.29a5,5,0,0,0-3.89-6l-.79-.17.27-1.28a5,5,0,0,0-3.83-5.87l-3.62-.76a4.94,4.94,0,0,0-5.87,3.83l-5.34,25.3-3-.65c3.66-17.36,6.94-32.93,7-33.29a4.48,4.48,0,0,1,5.3-3.45l7.15,1.51,39.42,8.31a4.47,4.47,0,0,1,3.45,5.3l-6.38,30.29h-16.12l-23.51-5.12Zm31.79,77.73c-.49,2.74-3.66,4.1-6.36,3.12,5-5.86-.49-5.22,6.79-5.16Z"/>
          <path d="M1278,642.3a1.59,1.59,0,1,0-1.59-1.58A1.58,1.58,0,0,0,1278,642.3Z"/>
          <path d="M1272,633.29a1.59,1.59,0,0,0-1.59,1.59V670a1.59,1.59,0,0,0,1.59,1.59h34.84a1.59,1.59,0,0,0,1.58-1.59V634.88a1.59,1.59,0,0,0-1.58-1.59Zm1.59,20.2c5.75.56,14.63,1.4,21.74,2.07l-21.74,4Zm3.09-2.89,11.16-7.23h4.46l13,8.24v1.69C1300.35,652.84,1286.09,651.51,1276.7,650.6Zm28.57-14.13v11.38l-11.64-7.41a1.59,1.59,0,0,0-.85-.25h-5.39a1.53,1.53,0,0,0-.86.26l-12.92,8.37V636.47Zm0,31.92h-31.66v-5.57l31.66-5.87v11.44Z"/>
        </g>
      </g>
    </g>
  </g>
</svg>
