<svg xmlns="http://www.w3.org/2000/svg" width="1920" height="1080" viewBox="0 0 1920 1080">
  <defs>
    <style>
      .cls-1 {
        fill: none;
      }

      .cls-2 {
        fill: #0067c5;
      }

      .cls-3 {
        fill: #0055a3;
      }

      .cls-4 {
        fill: #d3e1f5;
      }

      .cls-5 {
        fill: #b3ceec;
      }

      .cls-6 {
        fill: #98bce5;
      }

      .cls-7 {
        fill: #60b7ff;
      }

      .cls-8 {
        fill: #fee903;
      }

      .cls-9 {
        fill: #ffefd2;
      }
    </style>
  </defs>
  <title>Asset 6</title>
  <g id="Layer_2" data-name="Layer 2">
    <g id="Layer_1-2" data-name="Layer 1">
      <rect class="cls-1" width="1920" height="1080"/>
      <g>
        <g>
          <path class="cls-2" d="M730.63,450.35a6.17,6.17,0,0,0,0,.75,7.17,7.17,0,0,0,7.16,7.16h.17v8.49a6.8,6.8,0,0,1-6.8,6.8H654.69a6.8,6.8,0,0,1-6.8-6.8v-8.49a6.9,6.9,0,0,0,1.88-.29,7.16,7.16,0,0,0,3.41-11.49l0,0a7.14,7.14,0,0,0-5.27-2.5v-7.36a6.8,6.8,0,0,1,6.8-6.8h76.43a6.8,6.8,0,0,1,6.8,6.8V444h-.17a7.17,7.17,0,0,0-7.12,6.41Z"/>
          <path class="cls-3" d="M737.92,436.59V444h-.17a7.17,7.17,0,0,0-7.12,6.41l-70.16,20.19a6.8,6.8,0,0,1-8.42-4.65L649.77,458a7.16,7.16,0,0,0,3.41-11.49l0,0a7.14,7.14,0,0,0-5.27-2.5v-7.36a6.8,6.8,0,0,1,6.8-6.8h76.43a6.8,6.8,0,0,1,6.8,6.8Z"/>
          <path class="cls-4" d="M729.21,421.92a7.16,7.16,0,0,0,8.86,4.9l.16-.05,2.35,8.16a6.79,6.79,0,0,1-4.65,8.41l-73.44,21.14a6.8,6.8,0,0,1-8.42-4.65l-2.35-8.16a7.16,7.16,0,0,0-4-13.75l-2-7.07a6.8,6.8,0,0,1,4.65-8.42l73.45-21.14a6.8,6.8,0,0,1,8.41,4.66l2,7.07-.17,0a7.16,7.16,0,0,0-4.9,8.86Z"/>
          <path class="cls-5" d="M732.18,405.74a6.81,6.81,0,0,0-8.35-4.45l-73.45,21.14a6.8,6.8,0,0,0-4.75,8Z"/>
          <path class="cls-5" d="M700.58,408l12.11,42-50.2,14.45a6.8,6.8,0,0,1-8.42-4.65l-2.35-8.16a7.16,7.16,0,0,0-4-13.75l-2-7.07a6.8,6.8,0,0,1,4.65-8.42Z"/>
          <path class="cls-6" d="M700.58,408l-50.2,14.45a6.78,6.78,0,0,0-4.75,8h0l56.76-16.2Z"/>
          <g>
            <path class="cls-4" d="M680.11,438.28l-.72,12.62,4.42-1.27,3.4-13.18Z"/>
            <path class="cls-4" d="M679.07,434.65l-7.33-10.31,4.43-1.27,9.88,9.36Z"/>
            <path class="cls-4" d="M665.33,438.39s22-7.63,24.6-8.39,5.55,1.89,5.55,1.89-1.08,3.8-3.7,4.55-25.29,6-25.29,6l-2.72.94-3.7-6.32Z"/>
          </g>
          <path class="cls-7" d="M708.5,412l14.68-4.23,1.64,5.68-14.69,4.23Z"/>
          <path class="cls-8" d="M694.64,443.23l8-2.32L705.87,452l-8,2.32Z"/>
          <path class="cls-9" d="M712.17,461.82h16.12v5.65H712.17Z"/>
        </g>
        <g>
          <path d="M742,434.52l-2.34-8.15a1.52,1.52,0,0,0-2-.95,5.7,5.7,0,1,1-3.15-10.95,1.52,1.52,0,0,0,1.16-1.85l-2-7.08a8.26,8.26,0,0,0-10.22-5.65L650,421a8.26,8.26,0,0,0-5.65,10.22l2,7.07c0,.07,0,.13.07.2V444a1.47,1.47,0,0,0,1.43,1.46,5.71,5.71,0,0,1,5.27,3.88,5.73,5.73,0,0,1-1.84,1,1.45,1.45,0,0,0-1,1.79l1,3.45a5.59,5.59,0,0,1-3.45,1.27,1.47,1.47,0,0,0-1.43,1.46v8.49a8.28,8.28,0,0,0,8.26,8.26h18.49a1.46,1.46,0,1,0,0-2.92H654.69a5.35,5.35,0,0,1-5.34-5.34v-7.18a8.62,8.62,0,0,0,2.82-1.07l.5,1.74a8.26,8.26,0,0,0,10.22,5.65l67.63-19.46a8.52,8.52,0,0,0-1.39,4.68,8.63,8.63,0,0,0,7.33,8.52v7.12a5.35,5.35,0,0,1-5.34,5.34H680.18a1.46,1.46,0,1,0,0,2.92h50.94a8.28,8.28,0,0,0,8.26-8.26v-8.49a1.51,1.51,0,0,0-1.63-1.45,5.7,5.7,0,0,1,0-11.4,1.51,1.51,0,0,0,1.63-1.45v-.83a8.26,8.26,0,0,0,2.6-8.6Zm-92.63,8.12v-3.49a5.75,5.75,0,0,1,5.67,7.36,8.73,8.73,0,0,0-5.67-3.87Zm47.07,1.61,5.24-1.51L704,451l-5.24,1.51Zm42.3-4.86a5.52,5.52,0,0,1-3.2,2.55l-21.83,6.28c-.45-2.69-3.85-1.63-2.81.81l-4,1.16-2.79-9.66a1.4,1.4,0,0,0-.69-.87,1.44,1.44,0,0,0-1.11-.13l-8,2.32a1.46,1.46,0,0,0-1,1.8l2.78,9.67-33.91,9.76a5.34,5.34,0,0,1-6.61-3.66l-2-6.9a8.62,8.62,0,0,0-4.68-16.26l-1.68-5.82a5.34,5.34,0,0,1,3.66-6.61l48.79-14,.17.56a1.45,1.45,0,0,0,1.4,1.06,1.39,1.39,0,0,0,.4-.06,1.45,1.45,0,0,0,1-1.81l-.16-.56,21.84-6.28a5.28,5.28,0,0,1,4.06.45,5.33,5.33,0,0,1,2.55,3.2l1.66,5.76a8.62,8.62,0,0,0,4.71,16.38l2,6.84a5.33,5.33,0,0,1-.46,4.06Z"/>
          <path d="M705.56,420l-1.07-3.72a1.46,1.46,0,1,0-2.8.81l1.07,3.72A1.46,1.46,0,0,0,705.56,420Z"/>
          <path d="M708.57,430.46l-1.07-3.72a1.46,1.46,0,1,0-2.8.81l1.07,3.72A1.46,1.46,0,0,0,708.57,430.46Z"/>
          <path d="M710.51,437.2a1.46,1.46,0,1,0-2.8.81l1.07,3.72a1.46,1.46,0,0,0,2.81-.8Z"/>
          <path d="M726.09,414.13a1.47,1.47,0,0,0,.12-1.11l-1.63-5.67a1.47,1.47,0,0,0-1.81-1l-14.69,4.23a1.45,1.45,0,0,0-1,1.8l1.63,5.68a1.45,1.45,0,0,0,1.81,1l14.68-4.23a1.5,1.5,0,0,0,.88-.7Zm-15,1.72-.83-2.87,11.89-3.42.82,2.87Z"/>
          <path d="M723.79,436.37l7.84-2.26a1.46,1.46,0,0,0-.8-2.8L723,433.57a1.46,1.46,0,1,0,.81,2.8Z"/>
          <path d="M732.27,436.34l-7.84,2.26a1.46,1.46,0,0,0,.4,2.86,1.51,1.51,0,0,0,.41-.06l7.84-2.26a1.46,1.46,0,1,0-.81-2.8Z"/>
          <path d="M671.94,451.52l-11.06,3.19a1.46,1.46,0,0,0,.4,2.86,1.83,1.83,0,0,0,.4-.05l11.07-3.19a1.46,1.46,0,0,0-.81-2.81Z"/>
          <path d="M728.29,468.93a1.46,1.46,0,0,0,1.46-1.46v-5.65a1.46,1.46,0,0,0-1.46-1.46H712.17a1.46,1.46,0,0,0-1.46,1.46v5.65a1.46,1.46,0,0,0,1.46,1.46Zm-14.66-5.65h13.2V466h-13.2Z"/>
          <path d="M705,465.81a1.46,1.46,0,1,0,0-2.92H689.5a1.46,1.46,0,0,0,0,2.92Z"/>
          <path d="M689.53,428.6c-.58.17-2.06.65-4,1.31l-8.35-7.9a1.42,1.42,0,0,0-1.4-.34l-4.43,1.27a1.51,1.51,0,0,0-.79,2.25l5.62,7.91-10.9,3.77-4.83-1.26a1.49,1.49,0,0,0-1.63,2.15l3.7,6.32c.45.46.7.9,1.73.65l2.65-.91,11.59-2.69-.55,9.69c.12.7.31,1.7,1.86,1.48l4.43-1.27a1.47,1.47,0,0,0,1-1l2.87-11.12c2-.49,3.51-.86,4.09-1,3.29-.94,4.56-5.08,4.7-5.55a1.49,1.49,0,0,0-.43-1.49C696.1,430.48,692.82,427.65,689.53,428.6Zm-15.4-3.42,1.64-.48,6.62,6.27-3.34,1.14Zm8.48,23.27-1.65.48.49-8.49,3.43-.81ZM691.38,435c-.62.18-2.43.62-4.81,1.19h0l-3.38.8-.24.06-.12,0c-7.3,1.72-16.52,3.84-16.66,3.87l-.15,0-1.58.55-1.32-2.26,1.85.48a1.45,1.45,0,0,0,.85,0c.14,0,9.05-3.14,16.15-5.57l.65-.22h0l3-1h0c2.32-.79,4.09-1.38,4.71-1.55,1.09-.32,2.49.38,3.41,1-.45,1-1.27,2.32-2.36,2.64Z"/>
        </g>
      </g>
    </g>
  </g>
</svg>
