<svg xmlns="http://www.w3.org/2000/svg" width="1920" height="1080" viewBox="0 0 1920 1080">
  <defs>
    <style>
      .cls-1 {
        fill: none;
      }

      .cls-2 {
        fill: #f4d902;
      }

      .cls-3 {
        fill: #fee903;
      }

      .cls-4 {
        fill: #a44f3e;
      }

      .cls-5 {
        fill: #bb5d4c;
      }

      .cls-6 {
        fill: #fb2b3a;
      }

      .cls-7 {
        fill: #fd4755;
      }

      .cls-8 {
        fill: #5f99d7;
      }

      .cls-9 {
        fill: #baafb9;
      }

      .cls-10 {
        fill: #d7d0d6;
      }
    </style>
  </defs>
  <title>Asset 2</title>
  <g id="Layer_2" data-name="Layer 2">
    <g id="Layer_1-2" data-name="Layer 1">
      <rect class="cls-1" width="1920" height="1080"/>
    </g>
    <g id="Layer_2-2" data-name="Layer 2">
      <g>
        <g>
          <path class="cls-2" d="M1501,399.29c-13.36-11.7-31.83-18.94-52.22-18.94h0s.44.12,0,0h0c-40.66,0-73.45,29.15-73.86,64.67v30.82c0,12,7.15,22.57,17.93,28.58,12.45,6.92,22.26,16.86,27.91,28.64h56.06c5.65-11.78,15.46-21.72,27.91-28.64,10.78-6,17.93-16.57,17.93-28.58V445c0-17.86-8.27-34-21.64-45.73Z"/>
          <path class="cls-3" d="M1402.85,435.17q0,5.22.16,9.85c.24,7,.74,13.07,1.44,18.38,5.63,42.89,26.69,47.28,26.69,69.66h-10.39c-5.65-11.78-15.46-21.72-27.91-28.64-10.78-6-17.93-16.57-17.93-28.58V445c.41-35.52,33.2-64.67,73.86-64.67h0C1447,380.72,1402.85,390.47,1402.85,435.17Z"/>
          <path class="cls-3" d="M1507,445v30.82c0,10.31-8.38,19.38-17.87,27.27-11.2,9.29-18.08,20.3-23,29.95H1457c0-33.44,18.59-26.77,24.22-69.66.7-5.31,1.2-11.38,1.44-18.38q.17-4.63.16-9.85c0-32.09-16.85-46.17-26.82-51.69a35.46,35.46,0,0,0-7.18-3.13h0c7.18,0,23.25,7.24,36.61,18.94S1507,427.16,1507,445Z"/>
          <path class="cls-4" d="M1472.54,564.06v26a9,9,0,0,1-9,9H1434a9,9,0,0,1-9-9v-26Z"/>
          <path class="cls-5" d="M1456.93,564.06v26a9,9,0,0,1-9,9H1434a9,9,0,0,1-9-9v-26Z"/>
          <path class="cls-6" d="M1482.77,435.17q0,5.22-.16,9.85c-.24,7-.74,13.07-1.44,18.38-5.63,42.89-24.21,36.22-24.22,69.66h-16.36c0-33.44-18.59-26.77-24.22-69.66-.7-5.31-1.2-11.38-1.44-18.38q-.17-4.63-.16-9.85c0-44.52,32.43-54.37,34-54.81h.07C1449.62,380.58,1482.77,390.15,1482.77,435.17Z"/>
          <path class="cls-7" d="M1472.62,435.17q0,5.22-.16,9.85A178.79,178.79,0,0,1,1471,463.4c-4.39,31.45-22.24,33.68-22.25,69.66h-8.18c0-33.44-18.59-26.77-24.22-69.66-.7-5.31-1.2-11.38-1.44-18.38q-.17-4.63-.16-9.85c0-44.52,32.43-54.37,34-54.81h.07C1449.51,380.65,1472.62,390.29,1472.62,435.17Z"/>
          <g>
            <path class="cls-8" d="M1502.3,449.34h20.35v14.73H1502.3Z"/>
            <path class="cls-8" d="M1433.16,449.34h31.24v14.73h-31.24Z"/>
            <path class="cls-8" d="M1374.91,449.34h20.35v14.73h-20.35Z"/>
          </g>
          <path class="cls-9" d="M1434,533.06h29.48v13.56H1434Z"/>
          <path class="cls-10" d="M1434,533.06h21.56v13.56H1434Z"/>
        </g>
        <g>
          <path d="M1503.22,396.77C1488.66,384,1469.33,377,1448.77,377h0c-20.42,0-39.68,7.05-54.23,19.85s-22.76,29.94-23,48.1c0,.25,0,30.89,0,30.89,0,12.87,7.35,24.64,19.66,31.5,11.87,6.61,21,15.85,26.29,26.73l4,29-13.66,16.34c-2.77,3.31,2.35,7.62,5.13,4.29l8.7-10.4V590A12.36,12.36,0,0,0,1434,602.36h29.53A12.37,12.37,0,0,0,1475.89,590V573.28l8.7,10.4c2.78,3.33,7.91-1,5.14-4.29l-13.67-16.34,4-29a56,56,0,0,1,6.93-10.74c2.73-3.35-2.45-7.58-5.18-4.24a62.81,62.81,0,0,0-7,10.63h-14.38c.56-13.1,4.42-18.79,9.21-25.85,5.61-8.25,12-17.6,14.91-40,.74-5.61,1.63-25.17,1.63-28.67,0-24.49-9.63-38.87-17.71-46.62-1.28-1.22-2.56-2.32-3.82-3.32a73.39,73.39,0,0,1,34.22,16.58c13.22,11.57,20.5,26.92,20.5,43.21v1h-17a3.35,3.35,0,0,0-3.35,3.35v14.73a3.35,3.35,0,0,0,3.35,3.35h17v8.42c0,10.4-6.07,20-16.22,25.65a78.36,78.36,0,0,0-11.71,8c-3.33,2.76.94,7.91,4.26,5.16a71.54,71.54,0,0,1,10.71-7.29c12.3-6.86,19.65-18.63,19.65-31.5V445c0-18.25-8.09-35.38-22.78-48.25Zm-125,55.91h13.66v8h-13.66Zm81.91,83.73v6.86h-22.78v-6.86ZM1434,550h29.48a3.33,3.33,0,0,0,3.34-3.34V536.41H1473l-3.34,24.3h-41.71l-3.33-24.3h6.1v10.21A3.33,3.33,0,0,0,1434,550Zm35.17,23.43h-40.85v-6h40.85Zm-5.67,22.27H1434a5.66,5.66,0,0,1-5.66-5.65v-9.92h40.85V590A5.66,5.66,0,0,1,1463.53,595.66Zm15.89-160.49c0,3.42-.86,22.4-1.57,27.8-2.73,20.84-8.62,29.49-13.8,37.13-5,7.38-9.77,14.37-10.38,29.61h-9.8c-.61-15.24-5.36-22.23-10.38-29.61-5.19-7.64-11.07-16.29-13.8-37.13a211.72,211.72,0,0,1-1.58-27.8,76.71,76.71,0,0,1,.84-11.57c.64-4.27-6-5.27-6.62-1a84.88,84.88,0,0,0-.91,12.57,219.79,219.79,0,0,0,1.63,28.67c2.94,22.42,9.3,31.77,14.91,40,4.79,7.06,8.65,12.75,9.21,25.85h-14.35c-6-11.5-15.78-21.22-28.35-28.21-10.15-5.67-16.22-15.26-16.22-25.66v-8.42h17a3.35,3.35,0,0,0,3.35-3.35V449.34a3.35,3.35,0,0,0-3.35-3.35h-17v-.3c0-.2,0-.4,0-.63.33-29,23.67-53.42,54.61-59.76a54.42,54.42,0,0,0-16.95,23.41c-1.54,4,4.71,6.42,6.25,2.39,7.38-19.36,22.71-25.87,26.59-27.23a43.43,43.43,0,0,1,15.06,9.56c10.35,10,15.6,24,15.6,41.74Zm39.89,25.55h-13.66v-8h13.66Z"/>
          <path d="M1429.81,449.34v14.73a3.35,3.35,0,0,0,3.35,3.35h31.24a3.35,3.35,0,0,0,3.35-3.35V449.34a3.35,3.35,0,0,0-3.35-3.35h-31.24A3.35,3.35,0,0,0,1429.81,449.34Zm6.7,3.34h24.54v8h-24.54Z"/>
        </g>
      </g>
    </g>
  </g>
</svg>
