<svg xmlns="http://www.w3.org/2000/svg" width="1920" height="1080" viewBox="0 0 1920 1080">
  <defs>
    <style>
      .cls-1 {
        fill: none;
      }

      .cls-2 {
        fill: #5f99d7;
      }

      .cls-3 {
        fill: #baafb9;
      }

      .cls-4 {
        fill: #b3ceec;
      }

      .cls-5 {
        fill: #98bce5;
      }

      .cls-6 {
        fill: #d3e1f5;
      }
    </style>
  </defs>
  <title>Asset 3</title>
  <g id="Layer_2" data-name="Layer 2">
    <g id="Layer_1-2" data-name="Layer 1">
      <rect class="cls-1" width="1920" height="1080"/>
      <g>
        <g>
          <g>
            <path class="cls-2" d="M1020.6,581.28l-10.14-10.14,13.37-10.35a5.07,5.07,0,0,1,7.12,7.12Z"/>
            <path class="cls-2" d="M932.5,653l-12.24,12.24-9-9a3.68,3.68,0,0,1,1.93-6.22C919.16,648.93,927.81,648.42,932.5,653Z"/>
            <path class="cls-2" d="M938.61,659.12l-12.24,12.24,9,9a3.67,3.67,0,0,0,6.21-1.93C942.7,672.46,943.22,663.82,938.61,659.12Z"/>
          </g>
          <path class="cls-3" d="M930.53,579.3l-3.37-3.38a2.87,2.87,0,0,1,0-4.06l12-12a2.87,2.87,0,0,1,4.06,0l3.37,3.38a2.86,2.86,0,0,1,0,4l-12,12a2.87,2.87,0,0,1-4.06,0Z"/>
          <path class="cls-3" d="M960.44,586.61l-3.37-3.37a2.87,2.87,0,0,1,0-4.06l12-12a2.87,2.87,0,0,1,4.06,0l3.37,3.38a2.86,2.86,0,0,1,0,4.05l-12,12a2.87,2.87,0,0,1-4.06,0Z"/>
          <path class="cls-4" d="M1000.86,583.36l-35.3,35.3-15.11-10.09-43.58-29.1a4.24,4.24,0,0,1-.65-6.51l8.48-8.48a6.66,6.66,0,0,1,6.34-1.73l59.7,15.42Z"/>
          <path class="cls-5" d="M1000.86,583.36l-35.3,35.3-15.11-10.09,14.66-17.29,15.63-13.11Z"/>
          <path class="cls-3" d="M1011.71,660.47l3.37,3.38a2.87,2.87,0,0,0,4.06,0l12-12.05a2.86,2.86,0,0,0,0-4l-3.37-3.38a2.87,2.87,0,0,0-4.06,0l-12,12A2.87,2.87,0,0,0,1011.71,660.47Z"/>
          <path class="cls-3" d="M1004.39,630.56l3.38,3.38a2.86,2.86,0,0,0,4.05,0l12-12.05a2.86,2.86,0,0,0,0-4l-3.38-3.38a2.87,2.87,0,0,0-4.06,0l-12,12a2.87,2.87,0,0,0,0,4.06Z"/>
          <path class="cls-4" d="M1026.52,676.3l-8.48,8.48a4.23,4.23,0,0,1-6.51-.64l-28.48-42.66-10.71-16,35.3-35.3,5.54,21.44L1028.25,670a6.64,6.64,0,0,1-1.73,6.34Z"/>
          <path class="cls-5" d="M1000.51,626.68l-17.46,14.8-10.71-16,35.3-35.3,5.54,21.44Z"/>
          <path class="cls-4" d="M993.06,621.57,935,669.66a9.25,9.25,0,0,1-13-13l48.34-58a33,33,0,0,1,3.8-3.86l30.48-26.13A13,13,0,0,1,1023.05,587l-25.94,30.58a33.35,33.35,0,0,1-4.05,4Z"/>
          <path class="cls-6" d="M988,616.46,929.9,664.55a5.88,5.88,0,1,1-7.9-7.94l48.34-58a33,33,0,0,1,3.8-3.86l30.48-26.13a9.41,9.41,0,1,1,13.32,13.21L992,612.45a32.65,32.65,0,0,1-4,4Z"/>
        </g>
        <g>
          <path d="M1011.27,586.83a2,2,0,0,0,1.56,2.33c2.22.43,2.43-2.09,2.73-3.6a8,8,0,0,0-9.32-9.38c-1.51.22-3.92.5-3.66,2.72a2,2,0,0,0,2.32,1.57c2-.38,4-.93,5.68.72s1.08,3.65.69,5.64Z"/>
          <path d="M1032.58,646.35l-3.37-3.38a4.85,4.85,0,0,0-6.05-.65l-3.47-13.45,5.57-5.57a4.84,4.84,0,0,0,0-6.86l-3.38-3.38a4.85,4.85,0,0,0-6.39-.41l-2.71-10.51,11.77-13.88a15,15,0,0,0,3.55-10.32,15.73,15.73,0,0,0-.35-2.67l4.76-6.15a7.06,7.06,0,0,0-9.9-9.9l-6.11,4.73a15.07,15.07,0,0,0-13.18,3.2l-13.26,11.38-11.72-3a4.75,4.75,0,0,0,1-3,4.82,4.82,0,0,0-1.42-3.43l-3.37-3.37a4.86,4.86,0,0,0-6.86,0l-5.58,5.58-13.45-3.48a4.84,4.84,0,0,0-.65-6l-3.37-3.38a4.85,4.85,0,0,0-6.86,0l-5.26,5.26-11-2.84a8.64,8.64,0,0,0-8.24,2.24l-8.48,8.48a6.21,6.21,0,0,0,.95,9.56L955,614l-16.33,19.58a2,2,0,1,0,3,2.54l30.18-36.18a31.47,31.47,0,0,1,3.58-3.63l30.47-26.13a11.06,11.06,0,0,1,15.63,15.54L995.6,616.28a30.68,30.68,0,0,1-3.8,3.76l-51.53,42.68-.06,0-6.47,5.36a7.31,7.31,0,0,1-8.07.82l9.73-9.73a2,2,0,1,0-2.81-2.8l-9.77,9.78a7.31,7.31,0,0,1,.7-8.33L935.91,643a2,2,0,0,0-3-2.54l-6.2,7.43a35,35,0,0,0-13.86.16,5.66,5.66,0,0,0-3,9.57l8.68,8.68a11.28,11.28,0,0,0,1.45,2.74L917,672a2,2,0,0,0,0,2.8,2,2,0,0,0,2.8,0l2.95-2.95a11.5,11.5,0,0,0,2.54,1.3l8.67,8.66a5.64,5.64,0,0,0,4,1.66,5.53,5.53,0,0,0,1.7-.26,5.6,5.6,0,0,0,3.87-4.38,35.08,35.08,0,0,0,.18-13.82l33.88-28.07,32.26,48.32a6.2,6.2,0,0,0,4.56,2.73c.2,0,.41,0,.61,0a6.19,6.19,0,0,0,4.39-1.82l8.48-8.48a8.67,8.67,0,0,0,2.25-8.24l-2.84-11,5.25-5.26a4.85,4.85,0,0,0,0-6.85Zm-62.07-77.81a.89.89,0,0,1,1.26,0l3.37,3.38a.88.88,0,0,1,0,1.25l-1.19,1.2-7.37-1.9Zm-29.91-7.32a.89.89,0,0,1,1.26,0l3.37,3.38a.88.88,0,0,1,0,1.25l-.87.88-7.37-1.9ZM908,577.83a2.21,2.21,0,0,1-1-1.65,2.26,2.26,0,0,1,.64-1.82l.12-.12,52.87,33-3.08,3.7Zm64.89,15.46a33.93,33.93,0,0,0-4,4.09l-5.65,6.77-52.55-32.78,5.48-5.48a4.67,4.67,0,0,1,4.45-1.22l14.65,3.78-2.83,2.83a2,2,0,0,0,0,2.8,2,2,0,0,0,2.8,0l4.48-4.48,25.13,6.49L961.92,579a2,2,0,0,0,0,2.8,2,2,0,0,0,2.8,0l4.52-4.52,17.16,4.43Zm47.92-27.64,4.26-3.3c2.77-2.14,6.51,1.55,4.34,4.35l-3.31,4.28a14.9,14.9,0,0,0-5.29-5.33ZM912.21,653.13a1.63,1.63,0,0,1,1.31-1.16,36.63,36.63,0,0,1,10.22-.55l-3.27,3.92a11.26,11.26,0,0,0-2.39,4.94l-5.45-5.45A1.67,1.67,0,0,1,912.21,653.13Zm105.63-37.27a.88.88,0,0,1,.62-.26.92.92,0,0,1,.63.26l3.38,3.38a.92.92,0,0,1,.26.63.87.87,0,0,1-.27.62l-3.92,3.93c-.42-1.61-1.47-5.68-1.9-7.36Zm-78.18,62.25a1.63,1.63,0,0,1-1.15,1.3,1.66,1.66,0,0,1-1.71-.42l-5.44-5.44a11.33,11.33,0,0,0,4.91-2.37l3.94-3.27a36.14,36.14,0,0,1-.55,10.2Zm85.46-3.21-5.34,5.33L995.15,641a2,2,0,1,0-3.35,2.11l25.11,40-.27.27a2.26,2.26,0,0,1-1.81.65,2.24,2.24,0,0,1-1.65-1l-32.49-48.66,3.7-3.06,2.46,4.16a2,2,0,0,0,2.72.69,2,2,0,0,0,.69-2.72l-2.78-4.69,6.84-5.67a33.85,33.85,0,0,0,4.3-4.25l11-13,4.11,15.92-4.52,4.52a2,2,0,0,0,0,2.81,2,2,0,0,0,2.8,0l2.87-2.87,6.49,25.13-4.48,4.48a2,2,0,0,0,0,2.8,2,2,0,0,0,2.8,0l2.83-2.82,3.78,14.65a4.67,4.67,0,0,1-1.21,4.44Zm4.66-24.5-3.6,3.61c-.45-1.78-1.42-5.47-1.9-7.36l.87-.88a.89.89,0,0,1,1.25,0l3.38,3.38a.88.88,0,0,1,0,1.25Z"/>
        </g>
      </g>
    </g>
  </g>
</svg>
