<svg xmlns="http://www.w3.org/2000/svg" width="1920" height="1080" viewBox="0 0 1920 1080">
  <defs>
    <style>
      .cls-1 {
        fill: none;
      }

      .cls-2 {
        fill: #7b7179;
      }

      .cls-3 {
        fill: #aa9ea9;
      }

      .cls-4 {
        fill: #baafb9;
      }

      .cls-5 {
        fill: #fedba6;
      }

      .cls-6 {
        fill: #ffefd2;
      }

      .cls-7 {
        fill: #fb2b3a;
      }

      .cls-8 {
        fill: #0067c5;
      }

      .cls-9 {
        fill: #fd4755;
      }

      .cls-10 {
        fill: #0473ce;
      }
    </style>
  </defs>
  <title>Asset 7</title>
  <g id="Layer_2" data-name="Layer 2">
    <g id="Layer_1-2" data-name="Layer 1">
      <rect class="cls-1" width="1920" height="1080"/>
      <g>
        <g>
          <path class="cls-2" d="M732.8,660.32l3.87,3.87-6.4,6.4-3.87-3.87Z"/>
          <path class="cls-3" d="M729.68,703.62a25.67,25.67,0,1,1,0-36.3A25.59,25.59,0,0,1,729.68,703.62Z"/>
          <path class="cls-4" d="M725.4,703.62a25.67,25.67,0,1,1,0-36.3A25.53,25.53,0,0,1,725.4,703.62Z"/>
          <path class="cls-5" d="M727.43,697.21a19.23,19.23,0,0,1-1.93,2.24,20.24,20.24,0,0,1-2.24,1.93,19.77,19.77,0,0,1-27.64-27.64,19.94,19.94,0,0,1,4.17-4.17,19.77,19.77,0,0,1,27.64,27.64Z"/>
          <path class="cls-6" d="M722.91,697.21a19.94,19.94,0,0,1-4.17,4.17,18.27,18.27,0,0,1-23.12-27.64,19.94,19.94,0,0,1,4.17-4.17,18.27,18.27,0,0,1,23.12,27.64Z"/>
          <path class="cls-7" d="M720.37,677.93l-5.47,10.92-1.73-1.74-5-5,10.05-5,.29-.14.58-.29a1,1,0,0,1,1.3,1.3Z"/>
          <path class="cls-8" d="M714.9,688.85,704,694.32a1,1,0,0,1-1.31-1.31l.44-.86,5-10,5,5Z"/>
          <path class="cls-9" d="M718.2,677.06l-5,10.05-5-5Z"/>
          <path class="cls-10" d="M713.17,687.11l-10,5,5-10Z"/>
          <g>
            <path class="cls-2" d="M727.43,697.21a19.23,19.23,0,0,1-1.93,2.24,20.24,20.24,0,0,1-2.24,1.93l-2.77-2.77a3,3,0,0,1,4.18-4.17Z"/>
            <path class="cls-2" d="M702.56,676.51a3,3,0,0,1-4.17,0l-2.77-2.77a19.94,19.94,0,0,1,4.17-4.17l2.77,2.77a3,3,0,0,1,0,4.17Z"/>
          </g>
        </g>
        <g>
          <path d="M704.37,695.09l10.92-5.47a.85.85,0,0,0,.38-.39l5.47-10.91h0a1.83,1.83,0,0,0-2.46-2.46l-10.91,5.47a.85.85,0,0,0-.39.38l-5.47,10.92a1.85,1.85,0,0,0,2.46,2.46Zm15.08-17.69a.11.11,0,0,1,.15.15l-4.93,9.85-5.06-5.07Zm-16,16,4.94-9.85,5.06,5.06-9.85,4.94c-.09.05-.19-.06-.15-.15Z"/>
          <path d="M700.85,696.15a.87.87,0,0,0-1.22,0l-2.06,2.06a19,19,0,0,1-4.11-7.16.86.86,0,0,0-1.64.5,20.64,20.64,0,0,0,5.12,8.5c9.86,9.85,27,7,33.14-5.57,6-12.36-2-27.51-15.62-29.44a20.83,20.83,0,0,0-19.53,8.17,20.62,20.62,0,0,0-4,14,.86.86,0,1,0,1.72-.14,18.93,18.93,0,0,1,3-12c.67.68,1.33,1.37,2,2a3.81,3.81,0,1,0,5.4-5.38c-.65-.7-1.35-1.36-2-2a18.88,18.88,0,0,1,23.14,1.82l-2.06,2.06a.86.86,0,0,0,1.22,1.22l2.06-2.06a19,19,0,0,1,1.83,23.14c-.68-.67-1.33-1.37-2-2a3.81,3.81,0,1,0-5.41,5.38c.66.69,1.36,1.35,2,2a18.91,18.91,0,0,1-23.15-1.83l2.07-2.06a.86.86,0,0,0,0-1.21Zm1.72-21.73A2.11,2.11,0,0,1,699,675.9l-2.23-2.24a19.14,19.14,0,0,1,3-2.95L702,673A2.05,2.05,0,0,1,702.57,674.42Zm17.92,22.11a2.11,2.11,0,0,1,3.57-1.48l2.23,2.23a19.14,19.14,0,0,1-2.95,3L721.1,698A2.08,2.08,0,0,1,720.49,696.53Z"/>
          <path d="M735.67,669.45a1.39,1.39,0,0,0,1.93,0l3.32-3.32a7.09,7.09,0,0,0,2.08-5,7.17,7.17,0,0,0-7.1-7.1,7.09,7.09,0,0,0-5,2.08l-3.32,3.32a1.37,1.37,0,0,0,0,1.93l1.52,1.52-1.5,1.49a26.47,26.47,0,0,0-18.25-5.3,26.53,26.53,0,0,0,.22,52.89c17.31,1.29,31.45-14.83,28-31.8a.86.86,0,1,0-1.68.34A24.77,24.77,0,0,1,729.07,703c-12.08,12.08-33.23,8.2-40.19-7.41a24.81,24.81,0,1,1,45.73-19.23.87.87,0,0,0,1.12.49.86.86,0,0,0,.48-1.12,26.12,26.12,0,0,0-3.55-6.31l1.49-1.5ZM729,660.37l3.07-3.07a5.35,5.35,0,0,1,3.81-1.58,5.43,5.43,0,0,1,5.38,5.38,5.35,5.35,0,0,1-1.58,3.81L736.63,668l-1.26-1.26,1.91-1.91a.86.86,0,0,0,0-1.22l-3.87-3.87a.86.86,0,0,0-1.22,0l-1.9,1.91Zm-.11,5.07,3.89-3.89,2.65,2.65-3.89,3.89C731.16,667.62,729.38,665.85,728.91,665.44Z"/>
        </g>
      </g>
    </g>
  </g>
</svg>
