<svg xmlns="http://www.w3.org/2000/svg" width="1920" height="1080" viewBox="0 0 1920 1080">
  <defs>
    <style>
      .cls-1 {
        fill: none;
      }

      .cls-2 {
        fill: #d7d0d6;
      }

      .cls-3 {
        fill: #baafb9;
      }

      .cls-4 {
        fill: #bb5d4c;
      }

      .cls-5 {
        fill: #a44f3e;
      }

      .cls-6 {
        fill: #aa9ea9;
      }

      .cls-7 {
        fill: #7b7179;
      }

      .cls-8 {
        fill: #fee903;
      }
    </style>
  </defs>
  <title>Asset 5</title>
  <g id="Layer_2" data-name="Layer 2">
    <g id="Layer_1-2" data-name="Layer 1">
      <rect class="cls-1" width="1920" height="1080"/>
      <g>
        <g>
          <path class="cls-2" d="M1166,394V439a4.53,4.53,0,0,1-4.53,4.53h-85A4.53,4.53,0,0,1,1072,439V394a4.53,4.53,0,0,1,4.53-4.54h46.2l.71-5.88a3.73,3.73,0,0,1,3.71-3.29h13.12a3.74,3.74,0,0,1,3.71,3.29l.71,5.88h16.86A4.53,4.53,0,0,1,1166,394Z"/>
          <path class="cls-3" d="M1166,394V439a4.53,4.53,0,0,1-4.53,4.53h-4V389.43h4A4.53,4.53,0,0,1,1166,394Z"/>
          <path class="cls-4" d="M1072,401.77H1166v29.85H1072Z"/>
          <path class="cls-5" d="M1112.19,401.77h-22.85a27.73,27.73,0,0,0-.59,29.85h23.44Z"/>
          <path class="cls-5" d="M1157.47,401.77H1166v29.85h-8.57Z"/>
          <circle class="cls-6" cx="1110.49" cy="417.16" r="20.18"/>
          <circle class="cls-7" cx="1110.49" cy="417.16" r="12.25"/>
          <path class="cls-6" d="M1080.15,382.85h13.71v6.58h-13.71Z"/>
          <path class="cls-8" d="M1140.53,416.42h16.94V424h-16.94Z"/>
        </g>
        <g>
          <path d="M1161.51,388h-4.39c.76-2.34,2.05-6.57,3.08-11.23,2.12-9.61,2-16.11-.23-19.32a6,6,0,0,0-9.7,0c-2.27,3.21-2.35,9.71-.23,19.32,1,4.66,2.32,8.89,3.08,11.23h-7.2l-.55-4.61a5.18,5.18,0,0,0-5.14-4.56h-13.12a5.18,5.18,0,0,0-5.14,4.56l-.56,4.61H1095.3v-5.14a1.44,1.44,0,0,0-1.44-1.44h-13.71a1.43,1.43,0,0,0-1.44,1.44V388h-2.22a6,6,0,0,0-6,6V439a6,6,0,0,0,6,6h11.79a1.44,1.44,0,1,0,0-2.88h-6.69v-9.06h14.27a21.57,21.57,0,0,0,29.26,0h31.58v9.06h-61.56a1.44,1.44,0,0,0,0,2.88h66.37a6,6,0,0,0,6-6V394A6,6,0,0,0,1161.51,388Zm-8.89-28.89a3.17,3.17,0,0,1,5,0c1.73,2.45,1.65,8.49-.23,17-.71,3.24-1.57,6.3-2.27,8.63-.7-2.32-1.55-5.37-2.27-8.6-1.88-8.53-2-14.58-.23-17Zm-71,25.19h10.83V388h-10.83Zm-5.1,6.58h46.2a1.44,1.44,0,0,0,1.43-1.26l.71-5.89a2.29,2.29,0,0,1,2.27-2h13.13a2.3,2.3,0,0,1,2.28,2l.71,5.89a1.44,1.44,0,0,0,1.43,1.26h16.86a3.09,3.09,0,0,1,3.09,3.1v6.36h-21.27a1.44,1.44,0,0,0,0,2.88h21.27v27h-36.87a21.55,21.55,0,0,0-.74-27h9.54a1.44,1.44,0,1,0,0-2.88H1124a21.6,21.6,0,0,0-27.1,0H1073.4V394a3.09,3.09,0,0,1,3.09-3.1Zm-3.09,39.31v-27H1094a21.59,21.59,0,0,0-.74,27Zm5.31,11.94h-2.22a3.09,3.09,0,0,1-3.09-3.09v-6h5.31Zm13-25a18.74,18.74,0,1,1,18.73,18.74,18.75,18.75,0,0,1-18.73-18.74Zm69.75,25h-1.93v-9.06h5v6A3.09,3.09,0,0,1,1161.51,442.12Z"/>
          <path d="M1116.47,404.85a12.66,12.66,0,0,0-6-1.38,13.68,13.68,0,0,0-6.48,25.74,12.53,12.53,0,0,0,6.48,1.64,13.69,13.69,0,0,0,6-26Zm-16.79,12.31a10.81,10.81,0,0,1,14.09-10.29l-9.57,19.07a10.79,10.79,0,0,1-4.52-8.78ZM1110.49,428a10.78,10.78,0,0,1-3.74-.67l9.62-19.2a10.8,10.8,0,0,1-5.88,19.87Z"/>
          <path d="M1129.93,388.64h7.66a1.44,1.44,0,1,0,0-2.88h-7.66a1.44,1.44,0,0,0,0,2.88Z"/>
          <path d="M1140.53,425.46h16.94a1.44,1.44,0,0,0,1.44-1.44v-7.6a1.43,1.43,0,0,0-1.44-1.44h-16.94a1.43,1.43,0,0,0-1.44,1.44V424A1.44,1.44,0,0,0,1140.53,425.46Zm1.44-7.6H1156v4.72H1142Z"/>
        </g>
      </g>
    </g>
  </g>
</svg>
