<svg xmlns="http://www.w3.org/2000/svg" width="1920" height="1080" viewBox="0 0 1920 1080">
  <defs>
    <style>
      .cls-1 {
        fill: none;
      }

      .cls-2 {
        fill: #a44f3e;
      }

      .cls-3 {
        fill: #bb5d4c;
      }

      .cls-4 {
        fill: #d8aa5e;
      }

      .cls-5 {
        fill: #e8ad8c;
      }

      .cls-6 {
        fill: #e19974;
      }

      .cls-7 {
        fill: #d7d0d6;
      }

      .cls-8 {
        fill: #5de1c4;
      }

      .cls-9 {
        fill: #0473ce;
      }

      .cls-10 {
        fill: #ffefd2;
      }

      .cls-11 {
        fill: #fef056;
      }

      .cls-12 {
        fill: #596c76;
      }
    </style>
  </defs>
  <title>Asset 8</title>
  <g id="Layer_2" data-name="Layer 2">
    <g id="Layer_1-2" data-name="Layer 1">
      <rect class="cls-1" width="1920" height="1080"/>
      <g>
        <g>
          <path class="cls-2" d="M590.78,591.72v60.13a6,6,0,0,1-6,6h-104a6,6,0,0,1-6-6V591.72a6,6,0,0,1,6-6h104A6,6,0,0,1,590.78,591.72Z"/>
          <path class="cls-3" d="M584.2,591.72v60.13a6,6,0,0,1-6,6H480.82a6,6,0,0,1-6-6V591.72a6,6,0,0,1,6-6h97.39A6,6,0,0,1,584.2,591.72Z"/>
          <path class="cls-2" d="M492.06,585.73h19.43v72.11H492.06Z"/>
          <path class="cls-2" d="M549.1,585.73h19.37v72.11H549.1Z"/>
          <g>
            <path class="cls-4" d="M590.78,591.72v9.78c-.44,0-.88.07-1.34.07a13.52,13.52,0,0,1-13.32-15.84h8.67A6,6,0,0,1,590.78,591.72Z"/>
            <path class="cls-4" d="M590.78,642.31v9.54a6,6,0,0,1-6,6h-8.71a14.21,14.21,0,0,1-.16-2.07,13.52,13.52,0,0,1,13.52-13.52c.46,0,.9,0,1.34.06Z"/>
            <path class="cls-4" d="M489.93,588.05a13.52,13.52,0,0,1-13.52,13.52,13.67,13.67,0,0,1-1.58-.1v-9.75a6,6,0,0,1,6-6h8.91A13.62,13.62,0,0,1,489.93,588.05Z"/>
            <path class="cls-4" d="M489.93,655.77a12.94,12.94,0,0,1-.16,2.07h-8.95a6,6,0,0,1-6-6v-9.51a13.69,13.69,0,0,1,1.58-.09A13.52,13.52,0,0,1,489.93,655.77Z"/>
          </g>
          <path class="cls-5" d="M497.6,585.73h13.89v72.11H497.6Z"/>
          <path class="cls-6" d="M504.56,585.73h6.93v72.11h-6.93Z"/>
          <path class="cls-7" d="M495.75,634.45h17.59v9.26H495.75Z"/>
          <path class="cls-5" d="M554.58,585.73h13.89v72.11H554.58Z"/>
          <path class="cls-6" d="M561.52,585.73h7v72.11h-7Z"/>
          <path class="cls-7" d="M552.73,634.45h17.59v9.26H552.73Z"/>
          <path class="cls-4" d="M511.61,562.59h42.88v8H511.61Z"/>
          <path class="cls-8" d="M519.45,591.44l17.74,4.37L535.68,602l-17.75-4.37Z"/>
          <ellipse class="cls-9" cx="534.06" cy="613.31" rx="13.65" ry="5.24" transform="translate(-112.33 119.81) rotate(-11.59)"/>
          <path class="cls-10" d="M520.87,631.53h24.36V649.8H520.87Z"/>
          <path class="cls-11" d="M474.82,610.34H487v15H474.82Z"/>
          <path class="cls-12" d="M511.48,657.84l-1.82,6.33H490.42l-1.82-6.33Z"/>
          <path class="cls-12" d="M577.5,657.84l-1.82,6.33H556.44l-1.82-6.33Z"/>
        </g>
        <g>
          <path d="M584.79,583.9H563.38V573.25c0-4.67-3.15-8.47-7.07-8.59v-2.07a1.82,1.82,0,0,0-1.82-1.83H511.61a1.83,1.83,0,0,0-1.83,1.83v2.07c-3.91.12-7.06,3.93-7.06,8.59V583.9h-21.9a7.83,7.83,0,0,0-7.82,7.82v60.13a7.83,7.83,0,0,0,7.82,7.82h6.4l1.44,5a1.83,1.83,0,0,0,1.76,1.32h19.24a1.83,1.83,0,0,0,1.76-1.32l1.44-5h40.38l1.44,5a1.82,1.82,0,0,0,1.76,1.32h19.24a1.83,1.83,0,0,0,1.76-1.32l1.44-5h5.91a7.83,7.83,0,0,0,7.82-7.82V591.72a7.83,7.83,0,0,0-7.82-7.82Zm0,3.66a4.17,4.17,0,0,1,4.17,4.16v8a11.71,11.71,0,0,1-11.21-11.68c0-.17,0-.33,0-.49Zm-16.32,25.35a1.83,1.83,0,0,0,1.83-1.83V587.56h3.81c0,.16,0,.32,0,.49A15.36,15.36,0,0,0,589,603.38v37a15.37,15.37,0,0,0-14.86,15.34V656h-3.8V645.54h0a1.83,1.83,0,0,0,1.83-1.83v-9.26a1.82,1.82,0,0,0-1.83-1.82h0v-12.9a1.83,1.83,0,1,0-3.66,0v12.9H556.41V587.56h10.23v23.52a1.83,1.83,0,0,0,1.83,1.83Zm0,23.37v5.6h-5.14v-2.8a1.83,1.83,0,1,0-3.65,0v2.8h-5.14v-5.6h13.93Zm-12.08,9.26h3.29v1.09a1.83,1.83,0,1,0,3.65,0v-1.09h3.29V656H556.41Zm-43-81.12h39.22v4.38H513.44Zm-7.07,8.83c0-2.59,1.55-4.79,3.41-4.92v2.3a1.82,1.82,0,0,0,1.83,1.82h42.88a1.81,1.81,0,0,0,1.82-1.82v-2.3c1.87.13,3.41,2.33,3.41,4.92V583.9H541.17a1.83,1.83,0,0,0,0,3.66h11.59v45.07h0a1.81,1.81,0,0,0-1.82,1.82v9.26a1.82,1.82,0,0,0,1.82,1.83h0V656H513.32V645.54h0a1.83,1.83,0,0,0,1.83-1.83v-9.26a1.82,1.82,0,0,0-1.83-1.82h0V587.56h19.32a1.83,1.83,0,0,0,0-3.66H506.37ZM491.75,656c0-.08,0-.16,0-.24a15.37,15.37,0,0,0-15.11-15.34V627.16H487a1.83,1.83,0,0,0,1.83-1.83v-15a1.83,1.83,0,0,0-1.83-1.83H476.65v-5.12a15.37,15.37,0,0,0,15.11-15.34c0-.17,0-.33,0-.49h4v45.07h0a1.81,1.81,0,0,0-1.82,1.82v9.26a1.82,1.82,0,0,0,1.82,1.83h0V656Zm-15.1-43.85h8.51v11.35h-8.51Zm34.86,24.12v5.6h-5.14v-2.8a1.83,1.83,0,1,0-3.65,0v2.8h-5.14v-5.6h13.93Zm-12.08,9.26h3.29v1.09a1.83,1.83,0,1,0,3.65,0v-1.09h3.29V656H499.43Zm10.23-58v45.07H499.43V587.56Zm-33,4.16a4.17,4.17,0,0,1,4.17-4.16h7.27c0,.16,0,.32,0,.49a11.71,11.71,0,0,1-11.45,11.69v-8Zm0,60.13v-7.77a11.7,11.7,0,0,1,11.45,11.69V656h-7.28A4.17,4.17,0,0,1,476.65,651.85Zm31.64,10.5h-16.5l-.77-2.68h18Zm66,0H557.81l-.77-2.68h18ZM589,651.85a4.17,4.17,0,0,1-4.17,4.16h-7v-.24A11.7,11.7,0,0,1,589,644.09Z"/>
          <path d="M517.68,591l-1.51,6.15a1.83,1.83,0,0,0,1.33,2.21l17.75,4.37a2.1,2.1,0,0,0,.43,0,1.8,1.8,0,0,0,1-.27,1.85,1.85,0,0,0,.83-1.12l1.51-6.15a1.83,1.83,0,0,0-1.34-2.21l-17.74-4.37a1.83,1.83,0,0,0-2.21,1.34Zm3.11,2.65L535,597.14l-.64,2.6-14.19-3.49Z"/>
          <path d="M522.85,610.06c-4.05,2.59-4.23,5.08-4,6.34.45,2.18,2.61,3.35,4.58,3.91,3.84,1.09,8.14.69,12-.1,7.53-1.55,14.67-5.49,13.73-10s-9-5.36-16.57-3.81a29.5,29.5,0,0,0-9.76,3.69Zm16.51-.77c3.87,0,6.11,1,6.25,1.62.19,1-3.38,4.18-10.89,5.72a26.39,26.39,0,0,1-9.1.42c-2.25-.37-3.1-1.1-3.16-1.39s.44-1.29,2.36-2.52a26.21,26.21,0,0,1,8.53-3.19,30.14,30.14,0,0,1,6-.66Z"/>
          <path d="M545.23,629.7H520.87a1.83,1.83,0,0,0-1.83,1.83V649.8a1.83,1.83,0,0,0,1.83,1.83h24.36a1.83,1.83,0,0,0,1.83-1.83V631.53A1.83,1.83,0,0,0,545.23,629.7ZM543.4,648H522.7V633.36h20.7Z"/>
          <path d="M530.86,639.2h4.38a1.83,1.83,0,1,0,0-3.65h-4.38a1.83,1.83,0,1,0,0,3.65Z"/>
          <path d="M528.42,645.05h9.5a1.83,1.83,0,1,0,0-3.65h-9.5a1.83,1.83,0,1,0,0,3.65Z"/>
        </g>
      </g>
    </g>
  </g>
</svg>
